<?xml version="1.0" encoding="utf-8"?>
<!-- Generator: Adobe Illustrator 26.3.1, SVG Export Plug-In . SVG Version: 6.00 Build 0)  -->
<svg version="1.1" id="Layer_1" xmlns="http://www.w3.org/2000/svg" xmlns:xlink="http://www.w3.org/1999/xlink" x="0px" y="0px"
	 viewBox="0 0 2200 2200" style="enable-background:new 0 0 2200 2200;" xml:space="preserve">
<style type="text/css">
	.st0{stroke:#000000;stroke-width:90;stroke-miterlimit:10;}
	.st1{enable-background:new    ;}
	.st2{stroke:#000000;stroke-width:40;stroke-miterlimit:10;}
</style>
<g id="Background">
</g>
<g id="Objects">
	<g>
		<path class="st0" d="M1085,1865c-407.5,0-739-331.5-739-739s331.5-739,739-739s739,331.5,739,739S1492.5,1865,1085,1865z
			 M1085,428.6c-384.6,0-697.4,312.9-697.4,697.4c0,384.6,312.9,697.4,697.4,697.4c384.6,0,697.4-312.9,697.4-697.4
			C1782.5,741.5,1469.6,428.6,1085,428.6z"/>
	</g>
	<g class="st1">
		<path class="st2" d="M1054,1300.8l-3.5-30.1c-7-61.4,15.1-130.9,73-199.3c51-62.6,81.1-107.8,81.1-159.9
			c0-59.1-38.2-98.5-111.2-99.7c-40.6,0-88.1,13.9-117,37.1l-27.8-74.2c39.4-27.8,105.5-46.4,165.7-46.4
			c133.3,0,194.7,82.3,194.7,170.3c0,78.8-44,136.7-100.8,201.6c-49.8,61.4-69.5,112.4-64.9,171.5l1.2,29H1054z M1028.5,1464.2
			c0-42.9,27.8-73,68.4-73c41.7,0,68.4,30.1,69.5,73c0,40.6-27.8,71.8-69.5,71.8C1056.3,1536,1028.5,1504.7,1028.5,1464.2z"/>
	</g>
</g>
</svg>
