<?xml version="1.0" encoding="utf-8"?>
<!-- Generator: Adobe Illustrator 26.3.1, SVG Export Plug-In . SVG Version: 6.00 Build 0)  -->
<svg version="1.0" id="Layer_1" xmlns="http://www.w3.org/2000/svg" xmlns:xlink="http://www.w3.org/1999/xlink" x="0px" y="0px"
	 viewBox="0 0 2200 2200" style="enable-background:new 0 0 2200 2200;" xml:space="preserve">
<style type="text/css">
	.st0{stroke:#000000;stroke-width:25;stroke-miterlimit:10;}
</style>
<g id="Background">
</g>
<g id="Objects">
	<g>
		<path class="st0" d="M1085,1146.8c-150.4,0-272.7-122.3-272.7-272.7S934.7,601.5,1085,601.5s272.7,122.3,272.7,272.7
			S1235.4,1146.8,1085,1146.8z M1085,643c-127.5,0-231.1,103.7-231.1,231.1c0,127.5,103.7,231.1,231.1,231.1
			s231.1-103.7,231.1-231.1C1316.2,746.7,1212.5,643,1085,643z"/>
		<path class="st0" d="M1085,1865c-407.5,0-739-331.5-739-739s331.5-739,739-739s739,331.5,739,739S1492.5,1865,1085,1865z
			 M1085,428.6c-384.6,0-697.4,312.9-697.4,697.4c0,384.6,312.9,697.4,697.4,697.4c384.6,0,697.4-312.9,697.4-697.4
			C1782.5,741.5,1469.6,428.6,1085,428.6z"/>
		<path class="st0" d="M1085,1757.2c-130.7,0-256.2-39.6-362.8-114.6c-26.9-18.9-52.5-40.1-76.1-62.9c-4-3.9-6.3-9.3-6.3-14.9v-43.3
			c0-85.8,46.6-172,127.8-236.5c84.5-67.2,197.2-104.2,317.4-104.2c122.4,0,235.9,37,319.7,104.2c79.8,64,125.5,150.2,125.5,236.5
			v43.3c0,5.6-2.3,11-6.3,14.9c-23.7,22.9-49.3,44.1-76.1,62.9C1341.2,1717.6,1215.8,1757.2,1085,1757.2z M681.4,1555.9
			c20.3,19.1,42,36.8,64.7,52.8c99.6,70,216.7,107.1,338.9,107.1s239.3-37,338.9-107c22.7-16,44.5-33.7,64.8-52.8v-34.4
			c0-73.6-40.1-148-110-204.1c-76.4-61.3-180.7-95.1-293.7-95.1c-241.4,0-403.6,154.7-403.6,299.2V1555.9z M1509.5,1564.7
			L1509.5,1564.7L1509.5,1564.7z"/>
	</g>
</g>
</svg>
